<?xml version="1.0" encoding="UTF-8" standalone="no"?>
<!-- Generator: Gravit.io -->
<svg xmlns="http://www.w3.org/2000/svg" xmlns:xlink="http://www.w3.org/1999/xlink" style="isolation:isolate" viewBox="0 0 1561.594 600" width="1561.594pt" height="600pt">
    <defs>
        <clipPath id="_clipPath_fU9MFSnhTEG7JEBxnuBgLz2KV6gER9jA">
            <rect width="1561.594" height="600"/>
        </clipPath>
    </defs>
    <g clip-path="url(#_clipPath_fU9MFSnhTEG7JEBxnuBgLz2KV6gER9jA)">
        <clipPath id="_clipPath_YRROkFmLowCE6rl7gkF5EcINN0sy2EdS">
            <rect x="0" y="0" width="600" height="600" transform="matrix(1,0,0,1,0,0)" fill="rgb(255,255,255)"/>
        </clipPath>
        <g clip-path="url(#_clipPath_YRROkFmLowCE6rl7gkF5EcINN0sy2EdS)">
            <path d=" M 164.224 0 L 435.776 0 C 526.414 0 600 73.586 600 164.224 L 600 435.776 C 600 526.414 526.414 600 435.776 600 L 164.224 600 C 73.586 600 0 526.414 0 435.776 L 0 164.224 C 0 73.586 73.586 0 164.224 0 Z " fill="rgb(223,142,21)"/>
            <clipPath id="_clipPath_wgYP43oeUsRwweREHJJ37mjIu8JmMeWk">
                <rect x="108.024" y="64.1" width="383.953" height="471.799" transform="matrix(1,0,0,1,0,0)" fill="rgb(255,255,255)"/>
            </clipPath>
            <g clip-path="url(#_clipPath_wgYP43oeUsRwweREHJJ37mjIu8JmMeWk)">
                <path d=" M 349.633 70.103 L 109.633 485.796 C 106.32 491.534 108.287 498.874 114.025 502.188 C 234.362 571.663 388.788 530.286 458.263 409.95 C 527.742 289.613 486.364 135.187 366.026 65.711 C 360.284 62.396 352.945 64.363 349.633 70.103 Z  M 346.056 478.844 C 345.852 479.531 345.571 480.187 345.217 480.797 C 344.359 482.286 343.082 483.512 341.526 484.309 C 327.667 491.405 313.002 497.058 297.94 501.108 C 247.981 514.544 196.951 510.851 150.366 490.428 C 148.021 489.402 146.226 487.423 145.428 484.991 C 144.63 482.561 144.906 479.903 146.186 477.685 L 239.569 315.941 C 241.176 313.157 244.146 311.441 247.362 311.441 C 250.577 311.441 253.547 313.154 255.157 315.938 L 345.218 471.796 C 346.45 473.929 346.754 476.477 346.056 478.844 Z  M 461.252 299.226 C 462.961 301.127 463.778 303.517 463.506 306.058 C 460.121 337.504 450.14 367.69 433.841 395.922 C 417.589 424.07 396.342 447.767 370.696 466.421 C 368.63 467.922 366.029 468.458 363.533 467.929 C 361.037 467.4 358.883 465.826 357.606 463.616 L 268.604 309.452 C 266.996 306.668 266.996 303.527 268.604 300.742 C 270.212 297.956 273.184 296.53 276.397 296.53 L 454.558 296.53 C 457.111 296.531 459.546 297.325 461.252 299.226 Z  M 374.009 103.062 C 414.714 132.991 444.365 176.575 457.502 225.785 C 461.484 240.712 463.913 256.087 464.713 271.483 C 464.804 273.233 464.383 274.957 463.519 276.45 C 463.168 277.06 462.745 277.927 462.251 278.446 C 460.553 280.235 458.194 281.55 455.725 281.55 L 275.358 280.35 C 272.141 281.55 269.17 278.934 267.565 276.15 C 265.956 273.366 265.955 270.084 267.563 267.299 L 360.884 105.738 C 362.164 103.522 364.327 101.992 366.833 101.466 C 369.338 100.942 371.95 101.546 374.009 103.062 Z " fill="rgb(255,255,255)"/>
            </g>
        </g>
        <path d=" M 749.355 227.273 L 710.718 461.364 C 706.741 483.523 695.377 496.023 674.923 496.023 L 668.673 496.023 L 663.559 527.273 L 670.377 527.273 C 712.423 527.273 737.423 501.705 744.241 461.364 L 782.877 227.273 L 749.355 227.273 Z  M 775.207 190.909 C 788.275 190.909 799.071 180.682 799.071 168.182 C 799.071 155.682 788.275 145.455 775.207 145.455 C 762.139 145.455 751.343 155.682 751.343 168.182 C 751.343 180.682 762.139 190.909 775.207 190.909 Z  M 960.15 356.25 C 953.332 397.159 919.241 415.909 894.241 415.909 C 866.4 415.909 849.923 395.455 855.036 363.636 L 877.764 227.273 L 844.241 227.273 L 820.946 365.909 C 811.855 421.591 836.855 448.295 877.764 448.295 C 910.718 448.295 935.718 430.682 949.355 408.523 L 951.627 408.523 L 945.377 445.455 L 978.9 445.455 L 1015.264 227.273 L 981.741 227.273 L 960.15 356.25 Z  M 1040.264 445.455 L 1073.786 445.455 L 1110.15 227.273 L 1076.627 227.273 L 1040.264 445.455 Z  M 1103.616 190.341 C 1116.684 190.341 1127.48 180.114 1127.48 167.614 C 1127.48 155.114 1116.684 144.886 1103.616 144.886 C 1090.548 144.886 1079.752 155.114 1079.752 167.614 C 1079.752 180.114 1090.548 190.341 1103.616 190.341 Z  M 1223.218 450 C 1271.372 450 1307.735 420.455 1320.377 381.818 L 1286.855 381.818 C 1276.485 405.682 1254.326 419.886 1228.332 419.886 C 1188.417 419.886 1167.963 386.932 1176.627 336.364 C 1184.44 286.932 1216.258 254.545 1255.605 254.545 C 1285.008 254.545 1299.781 272.727 1301.627 292.614 L 1335.15 292.614 C 1336.144 251.705 1306.031 224.432 1260.15 224.432 C 1200.917 224.432 1153.758 271.023 1143.105 337.5 C 1132.167 402.841 1161.713 450 1223.218 450 Z  M 1449.355 450 C 1493.815 450 1529.61 427.841 1545.377 394.886 L 1514.696 385.795 C 1502.338 408.523 1481.315 419.886 1454.468 419.886 C 1412.423 419.886 1389.98 401.136 1398.076 347.727 L 1556.741 347.727 L 1559.014 333.523 C 1572.792 252.273 1529.042 224.432 1483.446 224.432 C 1424.497 224.432 1377.338 271.023 1366.4 338.068 C 1355.178 405.114 1386.428 450 1449.355 450 Z  M 1402.764 318.75 C 1409.44 287.784 1441.684 254.545 1478.332 254.545 C 1514.838 254.545 1533.588 281.818 1527.196 318.75 L 1402.764 318.75 Z " fill="rgb(0,0,0)"/>
    </g>
</svg>
