<?xml version="1.0" encoding="UTF-8" standalone="no"?>
<!-- Generator: Gravit.io -->
<svg xmlns="http://www.w3.org/2000/svg" xmlns:xlink="http://www.w3.org/1999/xlink" style="isolation:isolate" viewBox="0 0 500 500" width="500pt" height="500pt">
    <defs>
        <clipPath id="_clipPath_i5UPNTTy03HR31wVEAbkiRCy8fTsmY6h">
            <rect width="500" height="500"/>
        </clipPath>
    </defs>
    <g clip-path="url(#_clipPath_i5UPNTTy03HR31wVEAbkiRCy8fTsmY6h)">
        <path d="M 136.853 0 L 363.147 0 C 438.678 0 500 61.322 500 136.853 L 500 363.147 C 500 438.678 438.678 500 363.147 500 L 136.853 500 C 61.322 500 0 438.678 0 363.147 L 0 136.853 C 0 61.322 61.322 0 136.853 0 Z" style="stroke:none;fill:#DF8E15;stroke-miterlimit:10;"/>
        <clipPath id="_clipPath_qiR8uep4nyJoYaLQ79h5E1Nh9fmzBec1">
            <rect x="90.02" y="53.417" width="319.961" height="393.166" transform="matrix(1,0,0,1,0,0)" fill="rgb(255,255,255)"/>
        </clipPath>
        <g clip-path="url(#_clipPath_qiR8uep4nyJoYaLQ79h5E1Nh9fmzBec1)">
            <path d=" M 291.361 58.419 L 91.361 404.83 C 88.6 409.612 90.239 415.728 95.021 418.49 C 195.302 476.386 323.99 441.905 381.886 341.625 C 439.785 241.344 405.303 112.656 305.022 54.759 C 300.237 51.997 294.121 53.636 291.361 58.419 Z  M 288.38 399.037 C 288.21 399.609 287.976 400.156 287.681 400.664 C 286.966 401.905 285.902 402.927 284.605 403.591 C 273.056 409.504 260.835 414.215 248.283 417.59 C 206.651 428.787 164.126 425.709 125.305 408.69 C 123.351 407.835 121.855 406.186 121.19 404.159 C 120.525 402.134 120.755 399.919 121.822 398.071 L 199.641 263.284 C 200.98 260.964 203.455 259.534 206.135 259.534 C 208.814 259.534 211.289 260.962 212.631 263.282 L 287.682 393.163 C 288.708 394.941 288.962 397.064 288.38 399.037 Z  M 384.377 249.355 C 385.801 250.939 386.482 252.931 386.255 255.048 C 383.434 281.253 375.117 306.408 361.534 329.935 C 347.991 353.392 330.285 373.139 308.913 388.684 C 307.192 389.935 305.024 390.382 302.944 389.941 C 300.864 389.5 299.069 388.188 298.005 386.347 L 223.837 257.877 C 222.497 255.557 222.497 252.939 223.837 250.618 C 225.177 248.297 227.653 247.108 230.331 247.108 L 378.798 247.108 C 380.926 247.109 382.955 247.771 384.377 249.355 Z  M 311.674 85.885 C 345.595 110.826 370.304 147.146 381.252 188.154 C 384.57 200.593 386.594 213.406 387.261 226.236 C 387.337 227.694 386.986 229.131 386.266 230.375 C 385.973 230.883 385.621 231.606 385.209 232.038 C 383.794 233.529 381.828 234.625 379.771 234.625 L 229.465 233.625 C 226.784 234.625 224.308 232.445 222.971 230.125 C 221.63 227.805 221.629 225.07 222.969 222.749 L 300.737 88.115 C 301.803 86.268 303.606 84.993 305.694 84.555 C 307.782 84.118 309.958 84.622 311.674 85.885 Z " fill="rgb(255,255,255)"/>
        </g>
    </g>
</svg>
