<?xml version="1.0" encoding="utf-8"?>
<!-- Generator: Adobe Illustrator 16.0.0, SVG Export Plug-In . SVG Version: 6.00 Build 0)  -->
<!DOCTYPE svg PUBLIC "-//W3C//DTD SVG 1.1//EN" "http://www.w3.org/Graphics/SVG/1.1/DTD/svg11.dtd">
<svg version="1.1" id="Ebene_1" xmlns="http://www.w3.org/2000/svg" xmlns:xlink="http://www.w3.org/1999/xlink" x="0px" y="0px"
     width="1336.379px" height="481.502px" viewBox="258.641 57.528 1336.379 481.502"
     enable-background="new 258.641 57.528 1336.379 481.502" xml:space="preserve">
    <g>
        <defs>
            <path id="SVGID_1_" d="M462.625,64.461L259.768,499.488c-2.8,6.007-0.202,13.146,5.805,15.945
                c125.935,58.724,276.167,4.045,334.89-121.89c58.729-125.935,4.046-276.164-121.89-334.89
                C472.562,55.854,465.426,58.454,462.625,64.461z M494.686,471.959c-0.143,0.703-0.365,1.38-0.665,2.02
                c-0.725,1.56-1.89,2.892-3.37,3.819c-13.188,8.274-27.304,15.188-41.955,20.534c-48.6,17.738-99.756,18.507-147.943,2.221
                c-2.425-0.815-4.386-2.632-5.394-4.981c-1.007-2.354-0.964-5.025,0.118-7.347l78.932-169.268c1.358-2.915,4.167-4.882,7.369-5.162
                c3.203-0.279,6.312,1.166,8.159,3.801l103.302,147.413C494.648,467.03,495.176,469.541,494.686,471.959z M593.79,282.984
                c1.868,1.744,2.891,4.055,2.841,6.608c-0.634,31.622-7.945,62.562-21.721,92.107c-13.736,29.46-32.838,54.914-56.762,75.731
                c-1.928,1.68-4.472,2.438-7.005,2.132c-2.532-0.312-4.814-1.691-6.28-3.781L402.768,309.96c-1.846-2.632-2.121-5.762-0.761-8.675
                c1.359-2.915,4.194-4.596,7.396-4.875l177.482-15.529C589.429,280.66,591.924,281.24,593.79,282.984z M489.781,95.171
                c43.156,26.267,76.496,67.101,93.872,114.978c5.267,14.523,9.025,29.63,11.166,44.896c0.243,1.737-0.026,3.489-0.76,5.053
                c-0.298,0.639-0.642,1.54-1.089,2.1c-1.535,1.93-3.771,3.444-6.229,3.66l-179.786,14.524c-3.1,1.477-6.289-0.87-8.129-3.503
                c-1.846-2.635-2.132-5.903-0.773-8.817l78.886-169.083c1.08-2.319,3.104-4.031,5.555-4.773
                C484.945,93.465,487.598,93.84,489.781,95.171z M834.648,190.636L725.42,424.715c-18.983,40.339-51.694,65.906-93.739,65.906
                h-6.817l14.538-31.249h6.249c20.455,0,35.587-12.499,46.248-34.657l109.226-234.079H834.648z M820.932,131.548
                c3.771-12.5,17.648-22.726,30.717-22.726s20.78,10.227,17.012,22.726c-3.77,12.499-17.648,22.726-30.717,22.726
                S817.163,144.047,820.932,131.548z M1033.507,190.636h33.521L964.874,408.807h-33.521l17.386-36.93h-2.271
                c-20.319,22.157-50.63,39.771-83.585,39.771c-40.908,0-57.854-26.705-31.972-82.383l65.1-138.63h33.523l-63.848,136.356
                c-14.709,31.816-4.401,52.271,23.438,52.271c25,0,64.747-18.75,83.901-59.658L1033.507,190.636z M1128.392,190.636h33.523
                l-102.157,218.171h-33.521L1128.392,190.636z M1149.51,130.98c3.768-12.5,17.647-22.726,30.718-22.726
                c13.068,0,20.776,10.226,17.009,22.726c-3.771,12.499-17.649,22.726-30.718,22.726
                C1153.453,153.706,1145.74,143.479,1149.51,130.98z M1161.63,300.857c30.699-66.475,91.909-113.062,151.142-113.062
                c45.879,0,67.769,27.271,54.436,68.178h-33.521c4.151-19.885-5.139-38.066-34.543-38.066c-39.346,0-80.931,32.384-103.648,81.813
                c-23.914,50.566-13.397,83.52,26.517,83.52c25.994,0,52.438-14.204,70.004-38.066h33.52
                c-24.294,38.633-69.566,68.178-117.719,68.178C1146.312,413.352,1130.987,366.195,1161.63,300.857z M1384.753,301.426
                c31.156-67.042,92.366-113.631,151.313-113.631c45.596,0,80.95,27.84,42.67,109.085l-6.557,14.204h-158.664
                c-24.201,53.406-7.413,72.156,34.632,72.156c26.848,0,51.297-11.363,70.506-34.09l27.94,9.091
                c-25.703,32.952-68.181,55.11-112.64,55.11C1371.029,413.352,1353.314,368.467,1384.753,301.426z M1551.374,282.108
                c17.528-36.93,7.002-64.201-29.502-64.201c-36.646,0-78.915,33.237-94.93,64.201H1551.374z"/>
        </defs>
        <clipPath id="SVGID_2_">
            <use xlink:href="#SVGID_1_" overflow="visible"/>
        </clipPath>
        <linearGradient id="SVGID_3_" gradientUnits="userSpaceOnUse" x1="258.6411" y1="298.2793" x2="1595.02" y2="298.2793">
            <stop  offset="0" style="stop-color:#DF8E15"/>
            <stop  offset="1" style="stop-color:#EE5A16"/>
        </linearGradient>
        <rect x="258.641" y="57.528" clip-path="url(#SVGID_2_)" fill="url(#SVGID_3_)" width="1336.379" height="481.502"/>
    </g>
</svg>
