<?xml version="1.0" encoding="utf-8" standalone="no"?>
<!-- Generator: Adobe Illustrator 16.0.0, SVG Export Plug-In . SVG Version: 6.00 Build 0)  -->
<svg xmlns="http://www.w3.org/2000/svg" xmlns:xlink="http://www.w3.org/1999/xlink" x="0px" y="0px" width="1595.278px" height="600px" viewBox="0 0 1595.278 600">
    <path d="M600,480c0,66.274-53.726,120-120,120H120C53.726,600,0,546.274,0,480V120C0,53.726,53.726,0,120,0h360
        c66.274,0,120,53.726,120,120V480z" fill="#DF8E15"/>
    <path d="M329.705,64.461L126.848,499.488c-2.8,6.007-0.202,13.146,5.805,15.946
        c125.935,58.723,276.167,4.044,334.89-121.89c58.729-125.935,4.046-276.164-121.89-334.89
        C339.643,55.854,332.506,58.454,329.705,64.461z M361.766,471.959c-0.143,0.703-0.366,1.38-0.665,2.02
        c-0.725,1.559-1.89,2.891-3.37,3.819c-13.188,8.274-27.304,15.187-41.956,20.534c-48.599,17.738-99.756,18.507-147.943,2.221
        c-2.425-0.816-4.386-2.632-5.394-4.982c-1.007-2.354-0.964-5.025,0.118-7.346l78.932-169.268c1.358-2.915,4.167-4.882,7.369-5.162
        c3.203-0.279,6.312,1.166,8.159,3.801l103.302,147.413C361.729,467.03,362.256,469.541,361.766,471.959z M460.87,282.984
        c1.868,1.744,2.891,4.055,2.841,6.608c-0.634,31.622-7.945,62.562-21.721,92.107c-13.736,29.46-32.838,54.914-56.762,75.732
        c-1.927,1.679-4.471,2.438-7.004,2.131c-2.533-0.312-4.815-1.691-6.281-3.781L269.848,309.96c-1.846-2.632-2.121-5.762-0.761-8.675
        c1.359-2.915,4.194-4.596,7.396-4.875l177.482-15.529C456.509,280.66,459.004,281.24,460.87,282.984z M356.861,95.171
        c43.157,26.267,76.496,67.101,93.872,114.978c5.267,14.523,9.026,29.63,11.166,44.896c0.244,1.737-0.026,3.489-0.759,5.053
        c-0.298,0.639-0.642,1.54-1.089,2.1c-1.535,1.93-3.771,3.444-6.229,3.66l-179.786,14.524c-3.1,1.477-6.289-0.87-8.129-3.503
        c-1.846-2.635-2.132-5.903-0.773-8.817L344.02,98.979c1.08-2.319,3.104-4.031,5.554-4.773
        C352.025,93.465,354.678,93.84,356.861,95.171z" fill="#FFFFFF"/>
    <g>
        <path d="M835.103,190.636L724.895,424.715c-19.152,40.339-51.97,65.906-94.015,65.906h-6.818l14.669-31.249h6.249
            c20.455,0,35.64-12.499,46.393-34.657L801.58,190.636H835.103z M821.636,131.548c3.821-12.5,17.744-22.726,30.812-22.726
            c13.068,0,20.736,10.227,16.915,22.726c-3.822,12.499-17.744,22.726-30.812,22.726
            C825.482,154.274,817.813,144.047,821.636,131.548z"/>
        <path d="M1033.964,190.636h33.521L964.414,408.807h-33.521l17.541-36.93h-2.272c-20.411,22.157-50.796,39.771-83.751,39.771
            c-40.908,0-57.742-26.704-31.627-82.383l65.682-138.629h33.522l-64.42,136.356c-14.842,31.816-4.618,52.271,23.222,52.271
            c25,0,64.824-18.75,84.15-59.657L1033.964,190.636z"/>
        <path d="M1128.849,190.636h33.522L1059.3,408.807h-33.522L1128.849,190.636z M1150.215,130.98
            c3.821-12.5,17.743-22.726,30.812-22.726s20.736,10.226,16.915,22.726c-3.822,12.499-17.744,22.726-30.812,22.726
            S1146.393,143.479,1150.215,130.98z"/>
        <path d="M1161.623,300.857c30.979-66.474,92.383-113.062,151.615-113.062c45.88,0,67.654,27.271,54.152,68.178h-33.522
            c4.233-19.885-4.979-38.066-34.383-38.066c-39.346,0-81.066,32.384-103.992,81.814c-24.125,50.566-13.747,83.519,26.167,83.519
            c25.994,0,52.496-14.204,70.162-38.066h33.521c-24.455,38.633-69.852,68.178-118.004,68.178
            C1145.835,413.352,1130.708,366.195,1161.623,300.857z"/>
        <path d="M1384.745,301.426c31.437-67.042,92.841-113.631,151.789-113.631c45.596,0,80.833,27.84,42.213,109.085l-6.616,14.204
            h-158.663c-24.427,53.406-7.716,72.156,34.329,72.156c26.847,0,51.344-11.363,70.649-34.09l27.902,9.091
            c-25.842,32.952-68.412,55.11-112.872,55.11C1370.551,413.352,1353.024,368.467,1384.745,301.426z M1551.445,282.108
            c17.685-36.93,7.273-64.201-29.232-64.201c-36.647,0-79.054,33.237-95.198,64.201H1551.445z"/>
    </g>
</svg>
