<?xml version="1.0" standalone="no"?>
<!DOCTYPE svg PUBLIC "-//W3C//DTD SVG 20010904//EN"
 "http://www.w3.org/TR/2001/REC-SVG-20010904/DTD/svg10.dtd">
<svg version="1.0" xmlns="http://www.w3.org/2000/svg"
 width="700.000000pt" height="700.000000pt" viewBox="0 0 700.000000 700.000000"
 preserveAspectRatio="xMidYMid meet">
<metadata>
Created by potrace 1.11, written by Peter Selinger 2001-2013
</metadata>
<g transform="translate(0.000000,700.000000) scale(0.100000,-0.100000)"
fill="#000000" stroke="none">
<path d="M4305 6925 c-66 -36 18 103 -810 -1335 -100 -173 -193 -334 -208
-357 -15 -24 -27 -45 -27 -47 0 -4 -297 -521 -319 -556 -6 -8 -22 -37 -37 -65
-14 -27 -32 -57 -40 -66 -8 -8 -14 -18 -14 -21 0 -4 -19 -39 -43 -80 -24 -40
-55 -93 -69 -118 -38 -67 -127 -221 -193 -335 -32 -55 -141 -244 -242 -420
-101 -176 -188 -327 -193 -335 -8 -14 -119 -204 -160 -275 -107 -185 -252
-437 -266 -462 -11 -18 -66 -114 -124 -214 -58 -100 -116 -200 -129 -223 -65
-112 -586 -1016 -603 -1046 -11 -19 -40 -69 -64 -111 -58 -100 -68 -130 -59
-185 12 -81 53 -114 301 -238 262 -131 655 -264 919 -311 65 -11 162 -26 200
-31 22 -3 54 -7 70 -9 186 -28 668 -27 862 0 626 89 1107 267 1608 593 55 36
102 68 105 72 3 3 30 23 60 45 30 22 98 76 150 119 491 410 863 935 1088 1536
47 126 126 386 138 455 3 16 9 46 14 65 9 32 32 169 45 265 3 22 7 49 10 60
25 122 26 699 1 855 -2 14 -7 48 -11 75 -3 28 -9 66 -11 85 -7 46 -45 232 -67
327 -16 64 -54 191 -89 293 -283 824 -840 1510 -1595 1964 -76 45 -150 57
-198 31z m283 -559 c131 -91 407 -349 521 -486 30 -36 57 -67 60 -70 16 -12
154 -203 213 -295 146 -225 279 -503 360 -750 30 -94 84 -290 92 -337 3 -15
11 -63 20 -105 27 -142 40 -258 41 -373 0 -80 -3 -99 -20 -122 -46 -63 13 -60
-1078 -52 -546 3 -1152 7 -1347 8 -250 2 -361 6 -377 14 -31 17 -63 74 -63
112 0 30 12 56 90 195 15 26 126 217 333 575 33 58 79 137 102 175 22 39 79
137 125 218 47 81 93 162 104 180 10 18 153 266 319 552 165 286 306 529 313
540 39 56 127 66 192 21z m1229 -2833 c37 -17 74 -80 68 -114 -2 -10 -6 -44
-10 -76 -8 -72 -15 -123 -20 -143 -3 -8 -7 -33 -11 -55 -3 -22 -23 -107 -44
-190 -109 -425 -287 -798 -563 -1180 -44 -60 -83 -112 -87 -115 -4 -3 -31 -34
-60 -70 -123 -151 -466 -464 -573 -522 -65 -36 -137 -15 -180 53 -11 19 -118
203 -237 409 -119 206 -371 643 -560 970 -574 994 -527 905 -507 965 13 37 35
61 67 74 16 6 505 10 1353 10 1223 1 1332 0 1364 -16z m-3017 -220 c25 -14 93
-122 218 -343 10 -19 75 -132 144 -250 69 -118 168 -289 220 -380 52 -91 153
-264 223 -385 70 -121 139 -240 153 -265 14 -25 108 -189 210 -364 101 -176
190 -333 197 -350 15 -38 11 -88 -11 -122 -15 -21 -141 -89 -274 -147 -223
-96 -615 -200 -875 -231 -230 -28 -630 -28 -785 -1 -33 6 -75 12 -130 20 -254
35 -737 189 -810 258 -31 29 -46 81 -36 119 3 13 35 75 72 138 36 63 76 133
89 155 44 79 398 691 430 745 18 30 44 75 57 100 14 25 81 142 150 260 69 118
136 235 150 260 14 25 65 113 113 195 48 83 120 206 159 275 40 69 94 163 121
209 29 50 60 91 79 102 38 23 99 24 136 2z"/>
</g>
</svg>
